<svg viewBox="0 0 240 240" xmlns="http://www.w3.org/2000/svg"><defs><style>.b77c636c-e183-4751-b9f5-7f9b017d6d0f{fill:#cecece;}.a1fbf4b4-520d-4f7d-bcc2-093605c44e98,.a542c847-d28f-4173-b509-027323d0e24b,.ae025adc-db6d-44b5-b700-4461350f7db0,.b2e83cb5-8ca6-4246-a34a-51c878c5915c,.ef62a9e9-f607-40d4-b7ae-773629aa2d09{fill:none;stroke:#16326f;}.a542c847-d28f-4173-b509-027323d0e24b,.ae025adc-db6d-44b5-b700-4461350f7db0,.ef62a9e9-f607-40d4-b7ae-773629aa2d09{stroke-linecap:round;stroke-linejoin:round;}.ae025adc-db6d-44b5-b700-4461350f7db0,.b2e83cb5-8ca6-4246-a34a-51c878c5915c{stroke-width:1.49px;}.bf2cd82d-4f3b-4b95-88a2-23fc7e5796ac{fill:#fff;}.a1fbf4b4-520d-4f7d-bcc2-093605c44e98,.b2e83cb5-8ca6-4246-a34a-51c878c5915c{stroke-miterlimit:10;}.f4ab1b6b-4833-421d-abe5-b85d01df16c6{fill:#ececec;}.b71bf411-8ae0-40f3-b148-098e10db5335{fill:#16326f;}.bff97171-f001-4318-9c56-a61788e48e59{fill:#2158c7;}.ef62a9e9-f607-40d4-b7ae-773629aa2d09{stroke-width:1.5px;}.b33af9fb-4f55-4d87-b785-4872cdf0067a{fill:#dedede;}</style></defs><title>缺省页小爱</title><g id="a91044df-acc8-4f77-8449-daedfa43c709"><path d="M204.74,213.77c0,4.69-36,8.5-80.5,8.5s-80.5-3.81-80.5-8.5,36-8.5,80.5-8.5,80.5,3.8,80.5,8.5" class="b77c636c-e183-4751-b9f5-7f9b017d6d0f"></path><path d="M133.73,17.73A12.71,12.71,0,0,0,121,30.44h0a12.71,12.71,0,1,0-3.56,8.81V49.78h7.11V39.25a12.71,12.71,0,1,0,9.15-21.52Zm-25.41,20.5a7.79,7.79,0,1,1,7.79-7.79A7.79,7.79,0,0,1,108.32,38.23Zm25.41,0a7.79,7.79,0,1,1,7.79-7.79A7.79,7.79,0,0,1,133.73,38.23Z" class="ae025adc-db6d-44b5-b700-4461350f7db0"></path><path d="M145.43,95.1a1.05,1.05,0,1,1-1.05-1,1,1,0,0,1,1.05,1" class="bf2cd82d-4f3b-4b95-88a2-23fc7e5796ac"></path><path d="M177.3,140.5H64.76A4.48,4.48,0,0,1,60.28,136V54.17a4.49,4.49,0,0,1,4.48-4.48H177.3a4.5,4.5,0,0,1,4.48,4.48V136a4.49,4.49,0,0,1-4.48,4.47" class="bf2cd82d-4f3b-4b95-88a2-23fc7e5796ac"></path><rect rx="4.48" height="90.81" width="121.5" y="49.69" x="60.28" class="b2e83cb5-8ca6-4246-a34a-51c878c5915c"></rect><path d="M165.84,57.21l-43.28,8.38a2.75,2.75,0,0,1-1.07,0L78.22,57.21c-2-.38-3.8,1.4-3.8,3.75v68.28c0,2.35,1.81,4.13,3.8,3.75l43.27-8.34a2.75,2.75,0,0,1,1.07,0L165.84,133c2,.38,3.8-1.4,3.8-3.75V61c0-2.35-1.81-4.13-3.8-3.75" class="bf2cd82d-4f3b-4b95-88a2-23fc7e5796ac"></path><path d="M165.84,57.21l-43.28,8.38a2.75,2.75,0,0,1-1.07,0L78.22,57.21c-2-.38-3.8,1.4-3.8,3.75v68.28c0,2.35,1.81,4.13,3.8,3.75l43.27-8.34a2.75,2.75,0,0,1,1.07,0L165.84,133c2,.38,3.8-1.4,3.8-3.75V61C169.64,58.61,167.83,56.83,165.84,57.21Z" class="b2e83cb5-8ca6-4246-a34a-51c878c5915c"></path><path d="M100.26,100.39c0,1.47-3.91,2.67-8.73,2.67s-8.73-1.2-8.73-2.67,3.91-2.68,8.73-2.68,8.73,1.2,8.73,2.68" class="f4ab1b6b-4833-421d-abe5-b85d01df16c6"></path><path d="M161.26,100.39c0,1.47-3.91,2.67-8.73,2.67s-8.73-1.2-8.73-2.67,3.91-2.68,8.73-2.68,8.73,1.2,8.73,2.68" class="f4ab1b6b-4833-421d-abe5-b85d01df16c6"></path><path d="M101.82,90.63c0,4.79-2.33,8.67-5.2,8.67s-5.2-3.88-5.2-8.67S93.75,82,96.62,82s5.2,3.88,5.2,8.67" class="b71bf411-8ae0-40f3-b148-098e10db5335"></path><path d="M152.64,90.63c0,4.79-2.33,8.67-5.2,8.67s-5.21-3.88-5.21-8.67S144.56,82,147.44,82s5.2,3.88,5.2,8.67" class="b71bf411-8ae0-40f3-b148-098e10db5335"></path><path d="M150.48,90.63c0,2.81-1.36,5.08-3,5.08s-3.05-2.27-3.05-5.08,1.36-5.07,3.05-5.07,3,2.27,3,5.07" class="bff97171-f001-4318-9c56-a61788e48e59"></path><path d="M99.67,90.63c0,2.81-1.37,5.08-3,5.08s-3.05-2.27-3.05-5.08,1.37-5.07,3.05-5.07,3,2.27,3,5.07" class="bff97171-f001-4318-9c56-a61788e48e59"></path><path d="M107.53,72.79s-1,5-9,5" class="ae025adc-db6d-44b5-b700-4461350f7db0"></path><path d="M136.53,72.79s1,5,9,5" class="ae025adc-db6d-44b5-b700-4461350f7db0"></path><path d="M115.8,101.79s7,.84,6,7.5" class="ae025adc-db6d-44b5-b700-4461350f7db0"></path><path d="M127.9,101.79s-4.9.22-6.1,4" class="ae025adc-db6d-44b5-b700-4461350f7db0"></path><line y2="93.79" x2="109.03" y1="86.79" x1="114.03" class="a542c847-d28f-4173-b509-027323d0e24b"></line><line y2="93.79" x2="115.03" y1="87.79" x1="119.03" class="a542c847-d28f-4173-b509-027323d0e24b"></line><line y2="87.79" x2="125.03" y1="93.79" x1="121.03" class="a542c847-d28f-4173-b509-027323d0e24b"></line><line y2="87.79" x2="131.03" y1="93.79" x1="127.03" class="a542c847-d28f-4173-b509-027323d0e24b"></line><line y2="87.79" x2="137.03" y1="93.79" x1="133.03" class="a542c847-d28f-4173-b509-027323d0e24b"></line><path d="M51.27,121.24a13.33,13.33,0,0,1,.28-13.58s2.75,4.64,8.75-.36a50.55,50.55,0,0,0,4.13,6.29,30.64,30.64,0,0,0,31.13,11.29c7.42-1.67,15.24-8.08,20.74-3.58a8.54,8.54,0,0,1,2.82,5.79,8.87,8.87,0,0,0,.13,1.79,14.78,14.78,0,0,0-.13-1.79,6.55,6.55,0,0,1,3-5.31c2.66-2,6-1.16,6.66-1,59,14.75,53.69-12.59,53.51-13.49.11.29,1.26,2.94,6,2,0,0,2.48,3.3-1.59,14.46l.09,0c12.15,26.62,8.73,48.71,3.27,62.19a42.48,42.48,0,0,1-25.47,24.09c-22.68,7.95-53.07,7.43-69.85,6.34-14.84-1-30.73-6.22-39.5-18.25-.67-.91-1.33-1.87-2-2.87-10-16-3.5-46.5-3.5-46.5l.08,0A41.67,41.67,0,0,1,51,121.39Z" class="bf2cd82d-4f3b-4b95-88a2-23fc7e5796ac"></path><path d="M119.12,127.08a14.94,14.94,0,0,1,.13,1.8,9,9,0,0,1-.13-1.8" class="bf2cd82d-4f3b-4b95-88a2-23fc7e5796ac"></path><path d="M53.8,124.79a19.3,19.3,0,0,1-2.53-3.56,13.33,13.33,0,0,1,.28-13.58s2.75,4.64,8.75-.36a50.55,50.55,0,0,0,4.13,6.29,30.62,30.62,0,0,0,31.13,11.29c7.42-1.67,15.24-8.08,20.74-3.58a8.54,8.54,0,0,1,2.82,5.79,14.94,14.94,0,0,1,.13,1.8c.19,8.4-5,19.41-5,19.41" class="ef62a9e9-f607-40d4-b7ae-773629aa2d09"></path><path d="M51,121.39a41.28,41.28,0,0,0,3.56,37.42" class="ef62a9e9-f607-40d4-b7ae-773629aa2d09"></path><path d="M49.8,148.79s-6.5,30.5,3.5,46.5c.62,1,1.28,2,2,2.88,8.77,12,24.66,17.27,39.5,18.24,16.78,1.09,47.17,1.61,69.85-6.34A42.48,42.48,0,0,0,190.07,186c5.46-13.48,8.88-35.57-3.27-62.19" class="ef62a9e9-f607-40d4-b7ae-773629aa2d09"></path><path d="M188.3,109.29s2.48,3.31-1.59,14.47l-.09.24a27.19,27.19,0,0,0-1.76,9.81,12.39,12.39,0,0,0,.44,3.48" class="ef62a9e9-f607-40d4-b7ae-773629aa2d09"></path><path d="M182.3,107.29v0c.11.29,1.26,2.93,6,2" class="ef62a9e9-f607-40d4-b7ae-773629aa2d09"></path><path d="M127.8,145.79s-.5-.5-6.5-11.5a17.57,17.57,0,0,1-2-5.41,9,9,0,0,1-.13-1.8,6.55,6.55,0,0,1,3-5.31c2.66-2,6-1.16,6.66-1,59,14.76,53.69-12.59,53.51-13.48" class="ef62a9e9-f607-40d4-b7ae-773629aa2d09"></path><path d="M152.3,201.5c3.51-1,6.82-1.9,10-3a45.11,45.11,0,0,0,8.85-4.12,27,27,0,0,0,3.8-2.8,23.69,23.69,0,0,0,3.28-3.43,39.89,39.89,0,0,0,5.08-8.83,18.37,18.37,0,0,1-1.74,10.91,20.78,20.78,0,0,1-7.78,8.4,26.86,26.86,0,0,1-10.6,3.68,25.6,25.6,0,0,1-10.88-.78" class="b33af9fb-4f55-4d87-b785-4872cdf0067a"></path><path d="M185.89,109.53h1.28a3.93,3.93,0,0,0,3.92-3.92v-21a3.93,3.93,0,0,0-3.92-3.92h-1.28A3.93,3.93,0,0,0,182,84.59v21a3.93,3.93,0,0,0,3.93,3.92" class="bf2cd82d-4f3b-4b95-88a2-23fc7e5796ac"></path><rect rx="3.92" height="28.87" width="9.13" y="80.67" x="181.96" class="ae025adc-db6d-44b5-b700-4461350f7db0"></rect><path d="M192.92,100.83h0A1.83,1.83,0,0,0,194.74,99V91.2a1.83,1.83,0,1,0-3.65,0V99a1.84,1.84,0,0,0,1.83,1.83" class="bf2cd82d-4f3b-4b95-88a2-23fc7e5796ac"></path><path d="M192.92,100.83h0A1.83,1.83,0,0,0,194.74,99V91.2a1.83,1.83,0,1,0-3.65,0V99A1.84,1.84,0,0,0,192.92,100.83Z" class="ae025adc-db6d-44b5-b700-4461350f7db0"></path><path d="M56.17,109.53H54.88A3.93,3.93,0,0,1,51,105.61v-21a3.93,3.93,0,0,1,3.92-3.92h1.29a3.93,3.93,0,0,1,3.92,3.92v21a3.93,3.93,0,0,1-3.92,3.92" class="bf2cd82d-4f3b-4b95-88a2-23fc7e5796ac"></path><rect rx="3.92" height="28.87" width="9.13" y="80.67" x="50.96" class="ae025adc-db6d-44b5-b700-4461350f7db0"></rect><path d="M49.14,100.83h0A1.83,1.83,0,0,1,47.31,99V91.2a1.83,1.83,0,1,1,3.65,0V99a1.83,1.83,0,0,1-1.82,1.83" class="bf2cd82d-4f3b-4b95-88a2-23fc7e5796ac"></path><path d="M49.14,100.83h0A1.83,1.83,0,0,1,47.31,99V91.2a1.83,1.83,0,1,1,3.65,0V99A1.83,1.83,0,0,1,49.14,100.83Z" class="ae025adc-db6d-44b5-b700-4461350f7db0"></path><path d="M38.48,130s-3.84,2.29-1.48,7.13c1.83,3.76.52,5.94-.16,6.72a3.9,3.9,0,0,0-1,3.14,5,5,0,0,0,1,2.18" class="a1fbf4b4-520d-4f7d-bcc2-093605c44e98"></path><path d="M32.5,130.4s-3.85,2.28-1.49,7.12c1.84,3.77.52,5.95-.15,6.73a3.85,3.85,0,0,0-1,3.14,5.07,5.07,0,0,0,1,2.18" class="a1fbf4b4-520d-4f7d-bcc2-093605c44e98"></path><path d="M200.3,123.29s4,2,2,7c-1.55,3.89-.08,6,.65,6.7a3.84,3.84,0,0,1,1.22,3.06,4.93,4.93,0,0,1-.87,2.24" class="a1fbf4b4-520d-4f7d-bcc2-093605c44e98"></path><path d="M206.3,123.29s4,2,2,7c-1.55,3.89-.08,6,.65,6.7a3.84,3.84,0,0,1,1.22,3.06,4.93,4.93,0,0,1-.87,2.24" class="a1fbf4b4-520d-4f7d-bcc2-093605c44e98"></path><path d="M51.3,46.29a5,5,0,0,1,1,5c-1,3-3,5-1,8s-1,5,0,8" class="a1fbf4b4-520d-4f7d-bcc2-093605c44e98"></path><path d="M191.73,46.29a5,5,0,0,0-1,5c1,3,3,5,1,8s1,5,0,8" class="a1fbf4b4-520d-4f7d-bcc2-093605c44e98"></path><path d="M190.3,198.29s-2,6-8,8a13.43,13.43,0,0,0-8,7s-1,3-5,3" class="a1fbf4b4-520d-4f7d-bcc2-093605c44e98"></path><line y2="190" x2="194.87" y1="195.59" x1="191.74" class="a1fbf4b4-520d-4f7d-bcc2-093605c44e98"></line><line y2="186.29" x2="197.3" y1="184.29" x1="198.3" class="a1fbf4b4-520d-4f7d-bcc2-093605c44e98"></line><path d="M51.2,204.17s4.64,1.88,5.41,4.78,3.21,4.32,5.14,3.81,2.7,2.39,3.93,3.1" class="a1fbf4b4-520d-4f7d-bcc2-093605c44e98"></path><path d="M69.25,218.19a12.76,12.76,0,0,0,6,2.07" class="a1fbf4b4-520d-4f7d-bcc2-093605c44e98"></path><line y2="201.29" x2="46.3" y1="202.29" x1="48.3" class="a1fbf4b4-520d-4f7d-bcc2-093605c44e98"></line></g></svg>